<?xml version="1.0" encoding="utf-8"?>
<!-- Generator: Adobe Illustrator 15.1.0, SVG Export Plug-In . SVG Version: 6.00 Build 0)  -->
<!DOCTYPE svg PUBLIC "-//W3C//DTD SVG 1.1//EN" "http://www.w3.org/Graphics/SVG/1.1/DTD/svg11.dtd">
<svg version="1.1" id="レイヤー_1" xmlns="http://www.w3.org/2000/svg" xmlns:xlink="http://www.w3.org/1999/xlink" x="0px"
	 y="0px" width="240px" height="80px" viewBox="0.5 80 240 80" enable-background="new 0.5 80 240 80" xml:space="preserve">
<g id="レイヤー_2" display="none">
	<path display="inline" fill="none" stroke="#000000" stroke-linejoin="round" stroke-miterlimit="10" d="M221.409,222.499v-5.194
		c0,0-0.005-0.25-0.138-0.408c-0.143-0.17-0.356-0.137-0.356-0.137l-3.735-0.002c0,0-0.306-0.019-0.375,0.059
		c-0.08,0.086-0.091,0.414-0.091,0.414l0.007,5.271"/>
	<path display="inline" fill="none" stroke="#000000" stroke-linejoin="round" stroke-miterlimit="10" d="M224.109,221.977h5.195
		c0,0,0.25-0.004,0.408-0.139c0.168-0.143,0.137-0.357,0.137-0.357l0.002-3.734c0,0,0.019-0.307-0.059-0.374
		c-0.088-0.08-0.416-0.091-0.416-0.091l-5.27,0.006"/>
	<path display="inline" fill="none" stroke="#000000" stroke-linejoin="round" stroke-miterlimit="10" d="M212.563,217.279h-5.193
		c0,0-0.25,0.005-0.408,0.138c-0.17,0.144-0.137,0.356-0.137,0.356l-0.002,3.735c0,0-0.02,0.306,0.059,0.375
		c0.087,0.08,0.414,0.091,0.414,0.091l5.27-0.004"/>
	<path display="inline" fill="none" stroke="#000000" stroke-linejoin="round" stroke-miterlimit="10" d="M195,216.756v5.195
		c0,0,0.004,0.25,0.137,0.408c0.145,0.17,0.357,0.137,0.357,0.137l3.736,0.002c0,0,0.305,0.02,0.373-0.059
		c0.08-0.088,0.092-0.416,0.092-0.416v-5.269"/>
</g>
<g id="レイヤー_1_1_">
	<g>
		<path fill="#1B0900" stroke="#000000" stroke-miterlimit="10" d="M28.869,111.578l-0.005-3.75c0,0,0.026-0.329-0.045-0.438
			c-0.074-0.112-0.459-0.064-0.459-0.064l-20.625-0.01c0,0-0.21,0.004-0.344,0.137c-0.143,0.143-0.114,0.357-0.114,0.357
			l-0.002,3.736c0,0-0.015,0.305,0.049,0.375c0.074,0.08,0.349,0.09,0.349,0.09h20.766c0,0,0.294-0.053,0.357-0.123
			C28.849,111.83,28.869,111.578,28.869,111.578z"/>
		<path fill="#1B0900" stroke="#000000" stroke-linejoin="round" stroke-miterlimit="10" d="M30.869,134.594v-3.727
			c0,0,0.031-0.329-0.054-0.438c-0.087-0.113-0.546-0.064-0.546-0.064l-24.526-0.01c0,0-0.25,0.004-0.409,0.137
			c-0.169,0.143-0.135,0.357-0.135,0.357l-0.003,3.735c0,0-0.018,0.306,0.058,0.375c0.087,0.08,0.415,0.09,0.415,0.09h24.8
			c0,0,0.262-0.059,0.318-0.123C30.843,134.863,30.869,134.594,30.869,134.594z"/>
	</g>
	<path fill="#1B0900" stroke="#000000" stroke-miterlimit="10" d="M54.728,119.078c0.023,0.074,0.186,0.207,0.186,0.207l3.65,2.165
		c0,0,0.253,0.036,0.327,0c0.071-0.036,0.194-0.255,0.194-0.255l6.08-14.397c0,0,0.07-0.203,0.07-0.36
		c0-0.168-0.156-0.163-0.156-0.163l-15.222-0.006v-3.89c0,0-0.008-0.167-0.044-0.207c-0.03-0.034-0.171-0.056-0.171-0.056h-3.969
		c0,0-0.329-0.043-0.438,0.074c-0.112,0.121-0.064,0.751-0.064,0.751l-0.001,3.325l-5.172-0.002c0,0-0.21,0.004-0.344,0.137
		c-0.143,0.143-0.114,0.357-0.114,0.357l-0.002,3.736c0,0-0.015,0.305,0.049,0.375c0.074,0.08,0.349,0.09,0.349,0.09h5.233
		l-0.008,25.708c0,0,0.004,0.344,0.137,0.562c0.143,0.233,0.357,0.192,0.357,0.192h16.811c0,0,0.257-0.077,0.309-0.146
		c0.044-0.06,0.061-0.312,0.061-0.312l-0.004-3.75c0,0,0.021-0.329-0.037-0.438c-0.061-0.111-0.377-0.063-0.377-0.063l-12.561-0.01
		V110.96h8.284l-3.403,7.793C54.737,118.753,54.708,119.012,54.728,119.078z"/>
	<path fill="#1B0900" stroke="#000000" stroke-miterlimit="10" d="M91.547,108.26H73.563c0,0-0.275-0.01-0.349-0.09
		c-0.064-0.069-0.049-0.375-0.049-0.375l0.002-3.736c0,0-0.029-0.215,0.114-0.357c0.133-0.133,0.344-0.137,0.344-0.137l23.937,0.01
		c0,0,0.723-0.01,0.723,0.158c0,0.157-0.07,0.36-0.07,0.36l-10.664,26.621l2.051,5.545c0,0,0.052,0.158,0.039,0.21
		c-0.013,0.051-0.129,0.16-0.129,0.16l-3.362,1.944c0,0-0.303,0.102-0.305,0.102c-0.119,0-0.22-0.262-0.22-0.262
		s-4.82-12.269-4.843-12.343c-0.001-0.004-2.469,0-2.469,0l-2.156-4.225h8.063l1.002,2.111L91.547,108.26z"/>
	<path fill="#1B0900" stroke="#000000" stroke-miterlimit="10" d="M132.323,114.16c-0.087-0.112-0.546-0.064-0.546-0.064
		l-6.574-0.003l2.466-6.169h2.854c0,0,0.203-0.059,0.246-0.123c0.045-0.064,0.063-0.334,0.063-0.334v-3.726
		c0,0,0.023-0.329-0.042-0.438c-0.065-0.112-0.422-0.063-0.422-0.063l-18.982-0.01c0,0-0.193,0.004-0.316,0.137
		c-0.131,0.143-0.105,0.357-0.105,0.357l-0.002,3.736c0,0-0.014,0.305,0.045,0.375c0.067,0.08,0.321,0.09,0.321,0.09h11.339
		l-2.465,6.167l-12.954-0.005c0,0-0.25,0.004-0.409,0.137c-0.169,0.143-0.135,0.357-0.135,0.357l-0.003,3.736
		c0,0-0.018,0.305,0.058,0.375c0.087,0.08,0.415,0.09,0.415,0.09h11.153l-5.806,14.528l-4.855-0.014l1.98,3.879
		c0,0,0.144,0.211,0.226,0.262c0.087,0.054,0.266,0.084,0.266,0.084s5.402-0.004,5.406-0.004c0,0,0.297,0.01,0.328-0.08l0.135-0.342
		l7.319-18.313h8.646c0,0,0.262-0.059,0.318-0.123s0.082-0.334,0.082-0.334v-3.727C132.377,114.598,132.408,114.27,132.323,114.16z"
		/>
	<g>
		<path fill="#1B0900" stroke="#000000" stroke-miterlimit="10" d="M159.873,123.631c0,0,0.02-0.305-0.059-0.374
			c-0.086-0.08-0.414-0.091-0.414-0.091h-11.979c0,0-0.25,0.004-0.409,0.137c-0.169,0.143-0.136,0.357-0.136,0.357l-0.002,12.686
			c0,0-0.019,0.305,0.058,0.375c0.088,0.08,0.416,0.09,0.416,0.09h11.979c0,0,0.25-0.004,0.407-0.138
			c0.17-0.143,0.138-0.356,0.138-0.356L159.873,123.631z M155.784,132.095c-0.159,0.136-0.409,0.14-0.409,0.14h-4.068
			c0,0-0.328-0.01-0.414-0.092c-0.076-0.07-0.059-0.379-0.059-0.379l0.002-4.226c0,0-0.033-0.218,0.137-0.363
			c0.158-0.135,0.408-0.139,0.408-0.139h4.068c0,0,0.328,0.011,0.414,0.092c0.076,0.07,0.059,0.38,0.059,0.38l-0.002,4.225
			C155.92,131.732,155.953,131.951,155.784,132.095z"/>
		<path fill="#1B0900" stroke="#000000" stroke-miterlimit="10" d="M168.348,103.384c-0.06-0.059-0.379-0.084-0.379-0.084h-12.279
			v-2.751c0,0-0.004-0.25-0.138-0.409c-0.143-0.169-0.356-0.136-0.356-0.136l-3.735-0.002c0,0-0.308-0.019-0.375,0.058
			c-0.08,0.087-0.09,0.415-0.09,0.415L151,103.3h-11.895c0,0-0.25,0.032-0.407,0.166c-0.171,0.143-0.138,0.357-0.138,0.357
			l-0.002,3.604c0,0-0.019,0.305,0.06,0.375c0.087,0.08,0.415,0.117,0.415,0.117h6.277l1.754,2.376l-6.358-0.001
			c0,0-0.457,0.029-0.524,0.096c-0.063,0.062-0.039,0.468-0.039,0.468v28.578c0,0,0,0.271,0.063,0.359
			c0.094,0.133,0.461,0.049,0.461,0.049h3.469c0,0,0.283,0.102,0.35,0.024c0.074-0.087,0.084-0.415,0.084-0.415l-0.002-18.385
			l2.982,1.777c0,0,0.264,0.014,0.344-0.019c0.066-0.028,0.219-0.196,0.219-0.196l4.574-8.179h1.056v6.048
			c0,0,0.075,0.273,0.136,0.344c0.049,0.057,0.26,0.145,0.26,0.145h8.316v18.103c0,0,0.004,0.259,0.132,0.423
			c0.136,0.176,0.397,0.331,0.397,0.331h3.297c0,0,0.438-0.157,0.507-0.235c0.075-0.09,0.089-0.313,0.089-0.313v-28.28
			c0,0-0.041-0.332-0.104-0.422c-0.064-0.09-0.313-0.297-0.313-0.297h-6.031l1.347-2.376h6.153c0,0,0.331-0.035,0.406-0.108
			c0.058-0.057,0.089-0.312,0.089-0.312v-3.73C168.417,103.771,168.434,103.472,168.348,103.384z M144.563,120.452v-5.999h3.203
			L144.563,120.452z M155.156,110.296h-3.334l-1.371-2.376h6.025L155.156,110.296z M162.061,114.454c0,0,0.213,0.011,0.299,0.092
			c0.076,0.07,0.091,0.38,0.091,0.38v1.401c0,0,0,0.218-0.171,0.363c-0.157,0.136-0.293,0.14-0.293,0.14h-2.891
			c0,0-0.328-0.011-0.416-0.092c-0.076-0.071-0.058-0.38-0.058-0.38l0.002-1.401c0,0-0.033-0.218,0.136-0.363
			c0.159-0.135,0.409-0.139,0.409-0.139L162.061,114.454L162.061,114.454z"/>
	</g>
	<path fill="#1B0900" stroke="#000000" stroke-miterlimit="10" d="M201.71,108.185c0,0,0.25-0.004,0.409-0.138
		c0.169-0.143,0.136-0.357,0.136-0.357l0.002-3.533c0,0,0.019-0.305-0.058-0.374c-0.088-0.08-0.415-0.091-0.415-0.091l-11.349,0.006
		v-2.819c0,0-0.004-0.25-0.138-0.409c-0.144-0.169-0.356-0.136-0.356-0.136l-3.735-0.002c0,0-0.306-0.019-0.375,0.058
		c-0.08,0.087-0.09,0.415-0.09,0.415l0.005,2.825v0.067l-11.596-0.001c0,0-0.25,0.004-0.409,0.137
		c-0.169,0.143-0.136,0.357-0.136,0.357l-0.002,16.996l-2.84,10.031l3.781,2.688l3.678-12.589l0.002-13.133h8.711v14.85h-6.642
		c0,0-0.25,0.004-0.409,0.137c-0.169,0.143-0.136,0.357-0.136,0.357l-0.002,15.226c0,0-0.021,0.306,0.06,0.375
		c0.086,0.08,0.414,0.09,0.414,0.09h19.359c0,0,0.25-0.004,0.408-0.138c0.17-0.143,0.137-0.357,0.137-0.357l0.002-15.226
		c0,0,0.02-0.306-0.059-0.374c-0.088-0.08-0.416-0.091-0.416-0.091h-7.902v-4.912h4.75h5.193c0,0,0.25-0.004,0.408-0.138
		c0.17-0.143,0.137-0.357,0.137-0.357l0.003-3.736c0,0,0.019-0.305-0.06-0.374c-0.086-0.08-0.414-0.091-0.414-0.091h-5.27h-4.75
		v-5.242h9.96v0.003H201.71z M196.12,126.996c0.075,0.07,0.058,0.38,0.058,0.38l-0.002,6.765c0,0,0.033,0.219-0.136,0.363
		c-0.159,0.137-0.409,0.141-0.409,0.141h-11.449c0,0-0.328-0.012-0.414-0.093c-0.076-0.071-0.059-0.38-0.059-0.38l0.002-6.765
		c0,0-0.033-0.218,0.137-0.363c0.158-0.135,0.408-0.139,0.408-0.139h11.449C195.705,126.902,196.033,126.914,196.12,126.996z"/>
	<g>
		<path fill="#1B0900" stroke="#000000" stroke-linejoin="round" stroke-miterlimit="10" d="M213.341,100.749
			c0,0,0.111-0.313,0.081-0.358c-0.031-0.047-0.375-0.061-0.375-0.061h-3.422c0,0-0.277,0.09-0.328,0.124
			c-0.043,0.028-0.195,0.246-0.195,0.246l-3.136,7.332l3.493,1.972L213.341,100.749z"/>
		<path fill="#1B0900" stroke="#000000" stroke-linejoin="round" stroke-miterlimit="10" d="M236.593,112.12
			c-0.086-0.112-0.545-0.064-0.545-0.064l-8.629-0.01c0,0-0.25,0.004-0.409,0.137c-0.027,0.024-0.044,0.051-0.063,0.078v-0.521
			c0,0,0.007-0.329-0.079-0.438c-0.086-0.112-0.521-0.064-0.521-0.064l-3.104-0.003v-3.017h3.153c0,0,0.263-0.059,0.318-0.123
			c0.057-0.063,0.082-0.333,0.082-0.333l-0.003-3.309c0,0-0.034-0.251-0.12-0.36c-0.086-0.112-0.479-0.142-0.479-0.142l-2.952-0.003
			v-3.334c0,0-0.004-0.25-0.138-0.409c-0.144-0.169-0.356-0.136-0.356-0.136l-3.735-0.002c0,0-0.306-0.019-0.375,0.058
			c-0.08,0.087-0.091,0.415-0.091,0.415v3.404l-3.282-0.003c0,0-0.25,0.004-0.408,0.137c-0.17,0.143-0.135,0.357-0.135,0.357
			l-0.002,3.318c0,0-0.018,0.305,0.06,0.375c0.087,0.08,0.415,0.09,0.415,0.09h3.354v3.012l-3.432-0.003c0,0-0.25,0.004-0.409,0.137
			c-0.169,0.143-0.135,0.357-0.135,0.357l-0.003,3.343c0,0-0.018,0.305,0.059,0.375c0.087,0.08,0.415,0.09,0.415,0.09h3.505v5.276
			h-4.086c0,0-0.25,0.004-0.408,0.137c-0.17,0.143-0.136,0.356-0.136,0.356v3.317c0,0-0.019,0.305,0.06,0.375
			c0.086,0.08,0.414,0.09,0.414,0.09h4.156v7.669l-4.9,1.651c0,0-0.205,0.076-0.32,0.231v-19.121h-1.029l1.646-4.021
			c0,0,0.111-0.313,0.08-0.358c-0.03-0.047-0.375-0.061-0.375-0.061h-3.422c0,0-0.276,0.09-0.328,0.124
			c-0.043,0.028-0.195,0.246-0.195,0.246l-3.691,8.926l2.62,1.479v17.323c0,0,0.005,0.25,0.138,0.409
			c0.144,0.169,0.356,0.27,0.356,0.27h3.736c0,0,0.305-0.113,0.374-0.189c0.08-0.088,0.091-0.415,0.091-0.415v-4.082l1.014,3.028
			c0,0,0.08,0.295,0.175,0.338c0.107,0.048,0.422-0.047,0.422-0.047l14.631-4.982c0,0,0.088-0.055,0.162-0.113v5.916
			c0,0,0.004,0.25,0.138,0.409c0.144,0.169,0.356,0.138,0.356,0.138h3.736c0,0,0.305,0.02,0.374-0.058
			c0.08-0.087,0.091-0.415,0.091-0.415v-22.87h1.825c0,0,0.263-0.059,0.317-0.123c0.057-0.064,0.082-0.333,0.082-0.333l-0.002-3.491
			C236.646,112.558,236.68,112.229,236.593,112.12z M229.729,132.82l-1.713-2.729c0,0-0.162-0.284-0.279-0.36
			c-0.116-0.08-0.539,0.103-0.539,0.103l-3.954,1.333v-6.086h3.957c0,0,0.262-0.059,0.317-0.123
			c0.057-0.064,0.082-0.333,0.082-0.333l-0.004-3.308c0,0,0.031-0.33-0.055-0.438c-0.086-0.112-0.545-0.073-0.545-0.073h-3.754
			v-5.276h3.305c0,0,0.262-0.059,0.318-0.123c0.003-0.004,0.006-0.014,0.009-0.019v0.653c0,0-0.019,0.305,0.058,0.375
			c0.088,0.08,0.416,0.09,0.416,0.09h2.381V132.82z"/>
		<path fill="#1B0900" stroke="#000000" stroke-linejoin="round" stroke-miterlimit="10" d="M228.188,105.607
			c0,0-0.018,0.305,0.06,0.375c0.087,0.08,0.415,0.09,0.415,0.09h7.236c0,0,0.263-0.059,0.318-0.123
			c0.057-0.064,0.082-0.333,0.082-0.333l-0.003-3.491c0,0,0.031-0.329-0.055-0.438c-0.087-0.112-0.546-0.064-0.546-0.064
			l-6.963-0.01c0,0-0.25,0.004-0.409,0.137c-0.169,0.143-0.136,0.357-0.136,0.357V105.607z"/>
	</g>
	<rect id="_x3C_スライス_x3E_" x="0.5" y="99.5" fill="none" width="240" height="41"/>
</g>
</svg>
